# xmcd
#
# Track frame offsets: 
#        150
#        22766
#        41760
#        55307
#        70030
#        83942
#        101423
#        120356
#        133851
#
# Disc length: 1992 seconds
#
# Revision: 1
# Processed by: cddbd v1.5.2PL0 Copyright (c) Steve Scherf et al.
# Submitted via: ExactAudioCopyFreeDBPlugin 1.0
#
DISCID=6e07c609
DTITLE=Wild Cherry - Wild Cherry
DYEAR=1976
DGENRE=Funk
TTITLE0=Play That Funky Music
TTITLE1=The Lady Wants Your Money
TTITLE2=99½
TTITLE3=Don't Go Near The Water
TTITLE4=Nowhere To Run
TTITLE5=I Feel Sanctified
TTITLE6=Hold On
TTITLE7=Get It Up
TTITLE8=What In The Funk Do You See
EXTD=
EXTT0=
EXTT1=
EXTT2=
EXTT3=
EXTT4=
EXTT5=
EXTT6=
EXTT7=
EXTT8=
PLAYORDER=
